<svg xmlns="http://www.w3.org/2000/svg" viewBox="0 0 32 32">
  <path d="M2 17 C2 17 2 9 16 9 C30 9 30 17 30 17 Z" fill="#D6B347" stroke="#463F3A" stroke-width="1.5" stroke-linejoin="round"/>
  <path d="M2 18 C6 16 10 20 16 18 C22 16 26 20 30 18 L30 21 C26 23 22 19 16 21 C10 23 6 19 2 21 Z" fill="#9FB06F" stroke="#463F3A" stroke-width="1.2"/>
  <path d="M2 22 L30 22 L30 24 L2 24 Z" fill="#D98B73" stroke="#463F3A" stroke-width="1.2"/>
  <path d="M3 25 L29 25 L29 27 C29 28.5 27 29 26 29 L6 29 C5 29 3 28.5 3 27 Z" fill="#D6B347" stroke="#463F3A" stroke-width="1.5" stroke-linejoin="round"/>
</svg>
